<mxfile host="65bd71144e">
    <diagram id="ilcsWo_tiV0paUMdlcAV" name="第 1 页">
        <mxGraphModel dx="278" dy="522" grid="1" gridSize="10" guides="1" tooltips="1" connect="1" arrows="1" fold="1" page="1" pageScale="1" pageWidth="827" pageHeight="1169" background="#ffffff" math="0" shadow="0">
            <root>
                <mxCell id="0"/>
                <mxCell id="1" parent="0"/>
                <mxCell id="16" value="" style="rounded=0;whiteSpace=wrap;html=1;labelBackgroundColor=#FFFFFF;strokeColor=none;fontColor=#000000;fillColor=#FFFFFF;" vertex="1" parent="1">
                    <mxGeometry x="50" y="50" width="750" height="349" as="geometry"/>
                </mxCell>
                <mxCell id="2" value="" style="whiteSpace=wrap;html=1;aspect=fixed;fillColor=none;strokeColor=#B3B3B3;" vertex="1" parent="1">
                    <mxGeometry x="370" y="100" width="280" height="280" as="geometry"/>
                </mxCell>
                <mxCell id="6" style="edgeStyle=none;html=1;entryX=0;entryY=0.5;entryDx=0;entryDy=0;strokeColor=#000000;" edge="1" parent="1" source="3" target="5">
                    <mxGeometry relative="1" as="geometry"/>
                </mxCell>
                <mxCell id="8" value="开辟一个内存空间&lt;br&gt;分配给进程使用" style="edgeLabel;html=1;align=center;verticalAlign=middle;resizable=0;points=[];labelBackgroundColor=#FFFFFF;fontColor=#000000;" vertex="1" connectable="0" parent="6">
                    <mxGeometry x="0.2788" y="-4" relative="1" as="geometry">
                        <mxPoint x="-33" y="-4" as="offset"/>
                    </mxGeometry>
                </mxCell>
                <mxCell id="3" value="进程1" style="whiteSpace=wrap;html=1;aspect=fixed;fillColor=#76608a;fontColor=#ffffff;strokeColor=none;" vertex="1" parent="1">
                    <mxGeometry x="120" y="100" width="80" height="80" as="geometry"/>
                </mxCell>
                <mxCell id="4" value="内存" style="rounded=0;whiteSpace=wrap;html=1;strokeColor=none;fillColor=none;fontColor=#000000;fontStyle=1" vertex="1" parent="1">
                    <mxGeometry x="440" y="70" width="120" height="30" as="geometry"/>
                </mxCell>
                <mxCell id="5" value="" style="whiteSpace=wrap;html=1;aspect=fixed;fillColor=#647687;fontColor=#ffffff;strokeColor=none;" vertex="1" parent="1">
                    <mxGeometry x="370" y="100" width="80" height="80" as="geometry"/>
                </mxCell>
                <mxCell id="11" style="edgeStyle=none;html=1;strokeColor=#000000;" edge="1" parent="1" source="9" target="10">
                    <mxGeometry relative="1" as="geometry"/>
                </mxCell>
                <mxCell id="12" value="开辟一个内存空间&lt;br&gt;分配给进程使用" style="edgeLabel;html=1;align=center;verticalAlign=middle;resizable=0;points=[];labelBackgroundColor=#FFFFFF;fontColor=#000000;" vertex="1" connectable="0" parent="11">
                    <mxGeometry x="0.2941" y="-4" relative="1" as="geometry">
                        <mxPoint x="-30" y="-4" as="offset"/>
                    </mxGeometry>
                </mxCell>
                <mxCell id="9" value="进程2" style="whiteSpace=wrap;html=1;aspect=fixed;fillColor=#76608a;fontColor=#ffffff;strokeColor=none;" vertex="1" parent="1">
                    <mxGeometry x="120" y="275" width="80" height="80" as="geometry"/>
                </mxCell>
                <mxCell id="10" value="" style="whiteSpace=wrap;html=1;aspect=fixed;fillColor=#a0522d;fontColor=#ffffff;strokeColor=none;" vertex="1" parent="1">
                    <mxGeometry x="370" y="250" width="130" height="130" as="geometry"/>
                </mxCell>
            </root>
        </mxGraphModel>
    </diagram>
</mxfile>